<svg xmlns="http://www.w3.org/2000/svg" xmlns:xlink="http://www.w3.org/1999/xlink" width="500" zoomAndPan="magnify" viewBox="0 0 375 374.999991" height="500" preserveAspectRatio="xMidYMid meet" version="1.0"><defs><g/><clipPath id="4f1edbbffd"><path d="M 129.332031 110.371094 L 255.035156 110.371094 L 255.035156 236.070312 L 129.332031 236.070312 Z M 129.332031 110.371094 " clip-rule="nonzero"/></clipPath><clipPath id="f176181e75"><path d="M 192.183594 110.371094 C 157.472656 110.371094 129.332031 138.507812 129.332031 173.21875 C 129.332031 207.929688 157.472656 236.070312 192.183594 236.070312 C 226.894531 236.070312 255.035156 207.929688 255.035156 173.21875 C 255.035156 138.507812 226.894531 110.371094 192.183594 110.371094 " clip-rule="nonzero"/></clipPath><clipPath id="92d32a5255"><path d="M 138.332031 119.371094 L 246.035156 119.371094 L 246.035156 227.070312 L 138.332031 227.070312 Z M 138.332031 119.371094 " clip-rule="nonzero"/></clipPath><clipPath id="845917cf20"><path d="M 192.183594 119.371094 C 162.441406 119.371094 138.332031 143.480469 138.332031 173.21875 C 138.332031 202.960938 162.441406 227.070312 192.183594 227.070312 C 221.925781 227.070312 246.035156 202.960938 246.035156 173.21875 C 246.035156 143.480469 221.925781 119.371094 192.183594 119.371094 " clip-rule="nonzero"/></clipPath><clipPath id="5d71925445"><path d="M 149.582031 130.621094 L 234.785156 130.621094 L 234.785156 215.820312 L 149.582031 215.820312 Z M 149.582031 130.621094 " clip-rule="nonzero"/></clipPath><clipPath id="bf84abcc40"><path d="M 192.183594 130.621094 C 168.65625 130.621094 149.582031 149.691406 149.582031 173.21875 C 149.582031 196.746094 168.65625 215.820312 192.183594 215.820312 C 215.710938 215.820312 234.785156 196.746094 234.785156 173.21875 C 234.785156 149.691406 215.710938 130.621094 192.183594 130.621094 " clip-rule="nonzero"/></clipPath><clipPath id="1fd0185481"><path d="M 160.757812 141.796875 L 223.609375 141.796875 L 223.609375 204.644531 L 160.757812 204.644531 Z M 160.757812 141.796875 " clip-rule="nonzero"/></clipPath><clipPath id="0206c00bf1"><path d="M 192.183594 141.796875 C 174.828125 141.796875 160.757812 155.863281 160.757812 173.21875 C 160.757812 190.574219 174.828125 204.644531 192.183594 204.644531 C 209.539062 204.644531 223.609375 190.574219 223.609375 173.21875 C 223.609375 155.863281 209.539062 141.796875 192.183594 141.796875 " clip-rule="nonzero"/></clipPath><clipPath id="4991f4f702"><path d="M 168.632812 149.671875 L 215.734375 149.671875 L 215.734375 196.769531 L 168.632812 196.769531 Z M 168.632812 149.671875 " clip-rule="nonzero"/></clipPath><clipPath id="be6099d933"><path d="M 192.183594 149.671875 C 179.175781 149.671875 168.632812 160.214844 168.632812 173.21875 C 168.632812 186.226562 179.175781 196.769531 192.183594 196.769531 C 205.191406 196.769531 215.734375 186.226562 215.734375 173.21875 C 215.734375 160.214844 205.191406 149.671875 192.183594 149.671875 " clip-rule="nonzero"/></clipPath><clipPath id="5ef09c4186"><path d="M 79.683594 105.3125 L 192.183594 105.3125 L 192.183594 251.464844 L 79.683594 251.464844 Z M 79.683594 105.3125 " clip-rule="nonzero"/></clipPath><clipPath id="08493866e8"><path d="M 175.582031 156.617188 L 208.789062 156.617188 L 208.789062 189.824219 L 175.582031 189.824219 Z M 175.582031 156.617188 " clip-rule="nonzero"/></clipPath><clipPath id="a7423a9acb"><path d="M 192.183594 156.617188 C 183.015625 156.617188 175.582031 164.050781 175.582031 173.21875 C 175.582031 182.390625 183.015625 189.824219 192.183594 189.824219 C 201.355469 189.824219 208.789062 182.390625 208.789062 173.21875 C 208.789062 164.050781 201.355469 156.617188 192.183594 156.617188 " clip-rule="nonzero"/></clipPath></defs><rect x="-37.5" width="450" fill="#ffffff" y="-37.499999" height="449.999989" fill-opacity="1"/><rect x="-37.5" width="450" fill="#ffffff" y="-37.499999" height="449.999989" fill-opacity="1"/><rect x="-37.5" width="450" fill="#000000" y="-37.499999" height="449.999989" fill-opacity="1"/><g clip-path="url(#4f1edbbffd)"><g clip-path="url(#f176181e75)"><path fill="#ffffff" d="M 129.332031 110.371094 L 255.035156 110.371094 L 255.035156 236.070312 L 129.332031 236.070312 Z M 129.332031 110.371094 " fill-opacity="1" fill-rule="nonzero"/></g></g><g clip-path="url(#92d32a5255)"><g clip-path="url(#845917cf20)"><path fill="#000000" d="M 138.332031 119.371094 L 246.035156 119.371094 L 246.035156 227.070312 L 138.332031 227.070312 Z M 138.332031 119.371094 " fill-opacity="1" fill-rule="nonzero"/></g></g><g clip-path="url(#5d71925445)"><g clip-path="url(#bf84abcc40)"><path fill="#ffffff" d="M 149.582031 130.621094 L 234.785156 130.621094 L 234.785156 215.820312 L 149.582031 215.820312 Z M 149.582031 130.621094 " fill-opacity="1" fill-rule="nonzero"/></g></g><g clip-path="url(#1fd0185481)"><g clip-path="url(#0206c00bf1)"><path fill="#000000" d="M 160.757812 141.796875 L 223.609375 141.796875 L 223.609375 204.644531 L 160.757812 204.644531 Z M 160.757812 141.796875 " fill-opacity="1" fill-rule="nonzero"/></g></g><g clip-path="url(#4991f4f702)"><g clip-path="url(#be6099d933)"><path fill="#ffffff" d="M 168.632812 149.671875 L 215.734375 149.671875 L 215.734375 196.769531 L 168.632812 196.769531 Z M 168.632812 149.671875 " fill-opacity="1" fill-rule="nonzero"/></g></g><g clip-path="url(#5ef09c4186)"><path fill="#000000" d="M 79.683594 105.3125 L 192.183594 105.3125 L 192.183594 251.210938 L 79.683594 251.210938 Z M 79.683594 105.3125 " fill-opacity="1" fill-rule="nonzero"/></g><g clip-path="url(#08493866e8)"><g clip-path="url(#a7423a9acb)"><path fill="#000000" d="M 175.582031 156.617188 L 208.789062 156.617188 L 208.789062 189.824219 L 175.582031 189.824219 Z M 175.582031 156.617188 " fill-opacity="1" fill-rule="nonzero"/></g></g><g fill="#ffffff" fill-opacity="1"><g transform="translate(106.331482, 243.78213)"><g><path d="M 42.9375 -109.875 C 48.132812 -109.875 53 -108.878906 57.53125 -106.890625 C 62.0625 -104.898438 66.035156 -102.222656 69.453125 -98.859375 C 72.867188 -95.503906 75.566406 -91.554688 77.546875 -87.015625 C 79.535156 -82.484375 80.53125 -77.625 80.53125 -72.4375 C 80.53125 -68.863281 79.96875 -65.445312 78.84375 -62.1875 C 77.726562 -58.925781 76.351562 -55.671875 74.71875 -52.421875 C 74.519531 -52.109375 73.988281 -51.109375 73.125 -49.421875 C 72.257812 -47.742188 71.140625 -45.65625 69.765625 -43.15625 C 68.390625 -40.664062 66.859375 -37.84375 65.171875 -34.6875 C 63.492188 -31.53125 61.789062 -28.375 60.0625 -25.21875 C 55.976562 -17.675781 51.441406 -9.269531 46.453125 0 L 20.484375 0 L 40.34375 -35.609375 C 35.039062 -35.710938 30.25 -36.804688 25.96875 -38.890625 C 21.695312 -40.972656 18.054688 -43.722656 15.046875 -47.140625 C 12.046875 -50.554688 9.726562 -54.453125 8.09375 -58.828125 C 6.46875 -63.210938 5.65625 -67.75 5.65625 -72.4375 C 5.65625 -77.625 6.617188 -82.484375 8.546875 -87.015625 C 10.484375 -91.554688 13.132812 -95.503906 16.5 -98.859375 C 19.863281 -102.222656 23.8125 -104.898438 28.34375 -106.890625 C 32.875 -108.878906 37.738281 -109.875 42.9375 -109.875 Z M 55.015625 -62.046875 C 55.929688 -63.878906 56.769531 -65.8125 57.53125 -67.84375 C 58.300781 -69.882812 58.6875 -71.566406 58.6875 -72.890625 C 58.6875 -75.128906 58.300781 -77.21875 57.53125 -79.15625 C 56.769531 -81.09375 55.703125 -82.796875 54.328125 -84.265625 C 52.953125 -85.742188 51.347656 -86.914062 49.515625 -87.78125 C 47.679688 -88.65625 45.742188 -89.09375 43.703125 -89.09375 C 41.660156 -89.09375 39.722656 -88.65625 37.890625 -87.78125 C 36.054688 -86.914062 34.453125 -85.742188 33.078125 -84.265625 C 31.703125 -82.796875 30.632812 -81.09375 29.875 -79.15625 C 29.113281 -77.21875 28.734375 -75.128906 28.734375 -72.890625 C 28.734375 -68.515625 30.082031 -64.695312 32.78125 -61.4375 C 35.476562 -58.175781 39.222656 -56.546875 44.015625 -56.546875 C 45.941406 -56.546875 47.847656 -56.925781 49.734375 -57.6875 C 51.617188 -58.445312 53.273438 -59.695312 54.703125 -61.4375 Z M 55.015625 -62.046875 "/></g></g></g><g fill="#ffffff" fill-opacity="1"><g transform="translate(93.657669, 277.714319)"><g><path d="M 1.5625 -21.390625 L 8.1875 -21.390625 C 10.195312 -21.390625 11.796875 -20.957031 12.984375 -20.09375 C 14.179688 -19.238281 14.78125 -17.851562 14.78125 -15.9375 C 14.78125 -13.800781 13.890625 -12.273438 12.109375 -11.359375 C 15.148438 -10.816406 16.671875 -9.019531 16.671875 -5.96875 C 16.671875 -4.164062 16.046875 -2.71875 14.796875 -1.625 C 13.554688 -0.539062 11.847656 0 9.671875 0 L 1.5625 0 Z M 6.421875 -13.015625 L 6.8125 -13.015625 C 7.90625 -13.015625 8.71875 -13.203125 9.25 -13.578125 C 9.789062 -13.960938 10.0625 -14.585938 10.0625 -15.453125 C 10.0625 -16.898438 8.976562 -17.625 6.8125 -17.625 L 6.421875 -17.625 Z M 6.421875 -3.765625 L 7.953125 -3.765625 C 10.335938 -3.765625 11.53125 -4.554688 11.53125 -6.140625 C 11.53125 -7.085938 11.234375 -7.769531 10.640625 -8.1875 C 10.046875 -8.601562 9.148438 -8.8125 7.953125 -8.8125 L 6.421875 -8.8125 Z M 6.421875 -3.765625 "/></g></g></g><g fill="#ffffff" fill-opacity="1"><g transform="translate(110.913825, 277.714319)"><g><path d="M 1.5625 -21.390625 L 9.203125 -21.390625 C 11.253906 -21.390625 12.925781 -20.835938 14.21875 -19.734375 C 15.519531 -18.640625 16.171875 -17.070312 16.171875 -15.03125 C 16.171875 -13.457031 15.773438 -12.140625 14.984375 -11.078125 C 14.203125 -10.015625 13.140625 -9.269531 11.796875 -8.84375 L 19.15625 0 L 12.953125 0 L 6.421875 -8.453125 L 6.421875 0 L 1.5625 0 Z M 6.421875 -11.890625 L 7 -11.890625 C 7.445312 -11.890625 7.828125 -11.898438 8.140625 -11.921875 C 8.453125 -11.941406 8.804688 -12.003906 9.203125 -12.109375 C 9.597656 -12.210938 9.914062 -12.359375 10.15625 -12.546875 C 10.40625 -12.734375 10.613281 -13.007812 10.78125 -13.375 C 10.957031 -13.738281 11.046875 -14.175781 11.046875 -14.6875 C 11.046875 -15.207031 10.957031 -15.648438 10.78125 -16.015625 C 10.613281 -16.378906 10.40625 -16.65625 10.15625 -16.84375 C 9.914062 -17.039062 9.597656 -17.191406 9.203125 -17.296875 C 8.804688 -17.398438 8.453125 -17.457031 8.140625 -17.46875 C 7.828125 -17.488281 7.445312 -17.5 7 -17.5 L 6.421875 -17.5 Z M 6.421875 -11.890625 "/></g></g></g><g fill="#ffffff" fill-opacity="1"><g transform="translate(129.465486, 277.714319)"><g><path d="M 13.796875 -21.390625 L 13.796875 -17.109375 L 6.421875 -17.109375 L 6.421875 -12.859375 L 13.484375 -12.859375 L 13.484375 -8.578125 L 6.421875 -8.578125 L 6.421875 -4.28125 L 13.796875 -4.28125 L 13.796875 0 L 1.5625 0 L 1.5625 -21.390625 Z M 13.796875 -21.390625 "/></g></g></g><g fill="#ffffff" fill-opacity="1"><g transform="translate(144.493362, 277.714319)"><g><path d="M 12.421875 -21.390625 L 21.046875 0 L 15.8125 0 L 14.234375 -4.28125 L 6.09375 -4.28125 L 4.515625 0 L -0.71875 0 L 7.90625 -21.390625 Z M 12.578125 -8.546875 L 10.1875 -14.78125 L 10.140625 -14.78125 L 7.75 -8.546875 Z M 12.578125 -8.546875 "/></g></g></g><g fill="#ffffff" fill-opacity="1"><g transform="translate(164.80691, 277.714319)"><g><path d="M 0.203125 -17.109375 L 0.203125 -21.390625 L 15.234375 -21.390625 L 15.234375 -17.109375 L 10.15625 -17.109375 L 10.15625 0 L 5.28125 0 L 5.28125 -17.109375 Z M 0.203125 -17.109375 "/></g></g></g><g fill="#ffffff" fill-opacity="1"><g transform="translate(180.249349, 277.714319)"><g><path d="M 6.421875 -8.578125 L 6.421875 0 L 1.5625 0 L 1.5625 -21.390625 L 6.421875 -21.390625 L 6.421875 -12.859375 L 13.328125 -12.859375 L 13.328125 -21.390625 L 18.203125 -21.390625 L 18.203125 0 L 13.328125 0 L 13.328125 -8.578125 Z M 6.421875 -8.578125 "/></g></g></g><g fill="#ffffff" fill-opacity="1"><g transform="translate(199.992878, 277.714319)"><g><path d="M 17.96875 0 L 14.546875 -12 L 11.125 0 L 5.703125 0 L -0.390625 -21.390625 L 5.03125 -21.390625 L 8.6875 -6.71875 L 8.8125 -6.71875 L 12.703125 -21.390625 L 16.375 -21.390625 L 20.265625 -6.71875 L 20.40625 -6.71875 L 24.0625 -21.390625 L 29.453125 -21.390625 L 23.359375 0 Z M 17.96875 0 "/></g></g></g><g fill="#ffffff" fill-opacity="1"><g transform="translate(229.038141, 277.714319)"><g><path d="M 0.59375 -10.703125 C 0.59375 -13.796875 1.644531 -16.414062 3.75 -18.5625 C 5.863281 -20.707031 8.40625 -21.78125 11.375 -21.78125 C 14.363281 -21.78125 16.90625 -20.710938 19 -18.578125 C 21.09375 -16.441406 22.140625 -13.816406 22.140625 -10.703125 C 22.140625 -7.578125 21.109375 -4.945312 19.046875 -2.8125 C 16.992188 -0.675781 14.4375 0.390625 11.375 0.390625 C 8.25 0.390625 5.671875 -0.664062 3.640625 -2.78125 C 1.609375 -4.90625 0.59375 -7.546875 0.59375 -10.703125 Z M 5.859375 -10.703125 C 5.859375 -9.578125 6.03125 -8.550781 6.375 -7.625 C 6.71875 -6.707031 7.320312 -5.925781 8.1875 -5.28125 C 9.050781 -4.644531 10.113281 -4.328125 11.375 -4.328125 C 13.1875 -4.328125 14.554688 -4.945312 15.484375 -6.1875 C 16.410156 -7.4375 16.875 -8.941406 16.875 -10.703125 C 16.875 -12.453125 16.398438 -13.953125 15.453125 -15.203125 C 14.515625 -16.453125 13.15625 -17.078125 11.375 -17.078125 C 9.613281 -17.078125 8.253906 -16.453125 7.296875 -15.203125 C 6.335938 -13.953125 5.859375 -12.453125 5.859375 -10.703125 Z M 5.859375 -10.703125 "/></g></g></g><g fill="#ffffff" fill-opacity="1"><g transform="translate(251.761334, 277.714319)"><g><path d="M 1.5625 -21.390625 L 9.203125 -21.390625 C 11.253906 -21.390625 12.925781 -20.835938 14.21875 -19.734375 C 15.519531 -18.640625 16.171875 -17.070312 16.171875 -15.03125 C 16.171875 -13.457031 15.773438 -12.140625 14.984375 -11.078125 C 14.203125 -10.015625 13.140625 -9.269531 11.796875 -8.84375 L 19.15625 0 L 12.953125 0 L 6.421875 -8.453125 L 6.421875 0 L 1.5625 0 Z M 6.421875 -11.890625 L 7 -11.890625 C 7.445312 -11.890625 7.828125 -11.898438 8.140625 -11.921875 C 8.453125 -11.941406 8.804688 -12.003906 9.203125 -12.109375 C 9.597656 -12.210938 9.914062 -12.359375 10.15625 -12.546875 C 10.40625 -12.734375 10.613281 -13.007812 10.78125 -13.375 C 10.957031 -13.738281 11.046875 -14.175781 11.046875 -14.6875 C 11.046875 -15.207031 10.957031 -15.648438 10.78125 -16.015625 C 10.613281 -16.378906 10.40625 -16.65625 10.15625 -16.84375 C 9.914062 -17.039062 9.597656 -17.191406 9.203125 -17.296875 C 8.804688 -17.398438 8.453125 -17.457031 8.140625 -17.46875 C 7.828125 -17.488281 7.445312 -17.5 7 -17.5 L 6.421875 -17.5 Z M 6.421875 -11.890625 "/></g></g></g><g fill="#ffffff" fill-opacity="1"><g transform="translate(270.312995, 277.714319)"><g><path d="M 21.015625 0 L 14.3125 0 L 6.421875 -9.078125 L 6.421875 0 L 1.5625 0 L 1.5625 -21.390625 L 6.421875 -21.390625 L 6.421875 -12.65625 L 13.765625 -21.390625 L 19.671875 -21.390625 L 11.0625 -11.25 Z M 21.015625 0 "/></g></g></g><g fill="#000000" fill-opacity="1"><g transform="translate(39.707811, 21.847011)"><g><path d="M 2.03125 0.09375 C 1.675781 0.09375 1.394531 -0.00390625 1.1875 -0.203125 C 0.976562 -0.410156 0.875 -0.71875 0.875 -1.125 L 0.875 -7.171875 L 1.625 -7.171875 L 1.625 -1.1875 C 1.625 -0.96875 1.664062 -0.8125 1.75 -0.71875 C 1.832031 -0.625 1.960938 -0.578125 2.140625 -0.578125 C 2.242188 -0.578125 2.347656 -0.59375 2.453125 -0.625 L 2.515625 -0.609375 L 2.609375 -0.015625 C 2.554688 0.015625 2.476562 0.0390625 2.375 0.0625 C 2.269531 0.0820312 2.15625 0.09375 2.03125 0.09375 Z M 2.03125 0.09375 "/></g></g><g transform="translate(42.492229, 21.847011)"><g><path d="M 2.9375 0.09375 C 2.457031 0.09375 2.035156 -0.00390625 1.671875 -0.203125 C 1.316406 -0.410156 1.039062 -0.710938 0.84375 -1.109375 C 0.65625 -1.503906 0.5625 -1.988281 0.5625 -2.5625 C 0.5625 -3.125 0.65625 -3.601562 0.84375 -4 C 1.039062 -4.40625 1.316406 -4.707031 1.671875 -4.90625 C 2.035156 -5.113281 2.457031 -5.21875 2.9375 -5.21875 C 3.414062 -5.21875 3.832031 -5.113281 4.1875 -4.90625 C 4.550781 -4.707031 4.828125 -4.40625 5.015625 -4 C 5.210938 -3.601562 5.3125 -3.125 5.3125 -2.5625 C 5.3125 -1.988281 5.210938 -1.503906 5.015625 -1.109375 C 4.828125 -0.710938 4.550781 -0.410156 4.1875 -0.203125 C 3.832031 -0.00390625 3.414062 0.09375 2.9375 0.09375 Z M 2.9375 -0.578125 C 3.445312 -0.578125 3.835938 -0.738281 4.109375 -1.0625 C 4.378906 -1.382812 4.515625 -1.882812 4.515625 -2.5625 C 4.515625 -3.238281 4.378906 -3.734375 4.109375 -4.046875 C 3.835938 -4.367188 3.445312 -4.53125 2.9375 -4.53125 C 2.425781 -4.53125 2.035156 -4.367188 1.765625 -4.046875 C 1.492188 -3.722656 1.359375 -3.226562 1.359375 -2.5625 C 1.359375 -1.882812 1.492188 -1.382812 1.765625 -1.0625 C 2.035156 -0.738281 2.425781 -0.578125 2.9375 -0.578125 Z M 2.9375 -0.578125 "/></g></g><g transform="translate(48.367352, 21.847011)"><g><path d="M 2.640625 2.171875 C 1.828125 2.171875 1.234375 2.035156 0.859375 1.765625 C 0.492188 1.492188 0.3125 1.140625 0.3125 0.703125 C 0.3125 0.410156 0.394531 0.175781 0.5625 0 C 0.738281 -0.164062 0.992188 -0.285156 1.328125 -0.359375 L 1.328125 -0.453125 C 1.171875 -0.546875 1.050781 -0.648438 0.96875 -0.765625 C 0.894531 -0.890625 0.859375 -1.035156 0.859375 -1.203125 C 0.859375 -1.398438 0.921875 -1.5625 1.046875 -1.6875 C 1.171875 -1.8125 1.351562 -1.90625 1.59375 -1.96875 L 1.59375 -2.0625 C 1.039062 -2.351562 0.765625 -2.832031 0.765625 -3.5 C 0.765625 -3.832031 0.835938 -4.128906 0.984375 -4.390625 C 1.140625 -4.648438 1.359375 -4.851562 1.640625 -5 C 1.921875 -5.144531 2.25 -5.21875 2.625 -5.21875 C 3.050781 -5.21875 3.410156 -5.125 3.703125 -4.9375 C 3.804688 -5.050781 3.882812 -5.175781 3.9375 -5.3125 C 4 -5.457031 4.035156 -5.613281 4.046875 -5.78125 L 4.140625 -5.84375 L 4.765625 -5.703125 C 4.734375 -5.441406 4.65625 -5.21875 4.53125 -5.03125 C 4.40625 -4.851562 4.226562 -4.707031 4 -4.59375 L 4 -4.5 C 4.164062 -4.363281 4.285156 -4.207031 4.359375 -4.03125 C 4.441406 -3.863281 4.484375 -3.660156 4.484375 -3.421875 C 4.484375 -3.109375 4.40625 -2.820312 4.25 -2.5625 C 4.09375 -2.300781 3.875 -2.097656 3.59375 -1.953125 C 3.3125 -1.804688 2.988281 -1.734375 2.625 -1.734375 C 2.582031 -1.734375 2.503906 -1.738281 2.390625 -1.75 C 2.265625 -1.75 2.175781 -1.75 2.125 -1.75 C 1.957031 -1.75 1.828125 -1.707031 1.734375 -1.625 C 1.640625 -1.539062 1.59375 -1.4375 1.59375 -1.3125 C 1.59375 -1.144531 1.644531 -1.023438 1.75 -0.953125 C 1.851562 -0.878906 2.023438 -0.835938 2.265625 -0.828125 L 3.46875 -0.78125 C 3.988281 -0.757812 4.375 -0.632812 4.625 -0.40625 C 4.882812 -0.1875 5.015625 0.125 5.015625 0.53125 C 5.015625 0.84375 4.929688 1.117188 4.765625 1.359375 C 4.597656 1.609375 4.335938 1.804688 3.984375 1.953125 C 3.628906 2.097656 3.179688 2.171875 2.640625 2.171875 Z M 2.625 -2.390625 C 2.988281 -2.390625 3.269531 -2.484375 3.46875 -2.671875 C 3.664062 -2.859375 3.765625 -3.117188 3.765625 -3.453125 C 3.765625 -3.804688 3.664062 -4.078125 3.46875 -4.265625 C 3.269531 -4.460938 2.988281 -4.5625 2.625 -4.5625 C 2.257812 -4.5625 1.976562 -4.46875 1.78125 -4.28125 C 1.59375 -4.09375 1.5 -3.816406 1.5 -3.453125 C 1.5 -3.117188 1.59375 -2.859375 1.78125 -2.671875 C 1.976562 -2.484375 2.257812 -2.390625 2.625 -2.390625 Z M 2.640625 1.515625 C 3.015625 1.515625 3.320312 1.472656 3.5625 1.390625 C 3.800781 1.304688 3.972656 1.195312 4.078125 1.0625 C 4.179688 0.925781 4.234375 0.773438 4.234375 0.609375 C 4.234375 0.453125 4.203125 0.328125 4.140625 0.234375 C 4.085938 0.140625 4 0.0664062 3.875 0.015625 C 3.75 -0.0234375 3.578125 -0.0507812 3.359375 -0.0625 L 2.203125 -0.109375 L 2.046875 -0.109375 C 1.398438 -0.109375 1.078125 0.132812 1.078125 0.625 C 1.078125 1.21875 1.597656 1.515625 2.640625 1.515625 Z M 2.640625 1.515625 "/></g></g><g transform="translate(53.61134, 21.847011)"><g><path d="M 2.9375 0.09375 C 2.457031 0.09375 2.035156 -0.00390625 1.671875 -0.203125 C 1.316406 -0.410156 1.039062 -0.710938 0.84375 -1.109375 C 0.65625 -1.503906 0.5625 -1.988281 0.5625 -2.5625 C 0.5625 -3.125 0.65625 -3.601562 0.84375 -4 C 1.039062 -4.40625 1.316406 -4.707031 1.671875 -4.90625 C 2.035156 -5.113281 2.457031 -5.21875 2.9375 -5.21875 C 3.414062 -5.21875 3.832031 -5.113281 4.1875 -4.90625 C 4.550781 -4.707031 4.828125 -4.40625 5.015625 -4 C 5.210938 -3.601562 5.3125 -3.125 5.3125 -2.5625 C 5.3125 -1.988281 5.210938 -1.503906 5.015625 -1.109375 C 4.828125 -0.710938 4.550781 -0.410156 4.1875 -0.203125 C 3.832031 -0.00390625 3.414062 0.09375 2.9375 0.09375 Z M 2.9375 -0.578125 C 3.445312 -0.578125 3.835938 -0.738281 4.109375 -1.0625 C 4.378906 -1.382812 4.515625 -1.882812 4.515625 -2.5625 C 4.515625 -3.238281 4.378906 -3.734375 4.109375 -4.046875 C 3.835938 -4.367188 3.445312 -4.53125 2.9375 -4.53125 C 2.425781 -4.53125 2.035156 -4.367188 1.765625 -4.046875 C 1.492188 -3.722656 1.359375 -3.226562 1.359375 -2.5625 C 1.359375 -1.882812 1.492188 -1.382812 1.765625 -1.0625 C 2.035156 -0.738281 2.425781 -0.578125 2.9375 -0.578125 Z M 2.9375 -0.578125 "/></g></g><g transform="translate(59.486463, 21.847011)"><g/></g><g transform="translate(61.816093, 21.847011)"><g><path d="M 0.40625 -0.3125 C 0.40625 -0.6875 0.445312 -0.988281 0.53125 -1.21875 C 0.613281 -1.445312 0.753906 -1.660156 0.953125 -1.859375 C 1.148438 -2.054688 1.460938 -2.3125 1.890625 -2.625 L 2.640625 -3.171875 C 2.921875 -3.367188 3.144531 -3.550781 3.3125 -3.71875 C 3.488281 -3.894531 3.625 -4.082031 3.71875 -4.28125 C 3.820312 -4.476562 3.875 -4.703125 3.875 -4.953125 C 3.875 -5.347656 3.765625 -5.648438 3.546875 -5.859375 C 3.335938 -6.066406 3.007812 -6.171875 2.5625 -6.171875 C 2.195312 -6.171875 1.875 -6.082031 1.59375 -5.90625 C 1.320312 -5.738281 1.101562 -5.503906 0.9375 -5.203125 L 0.828125 -5.1875 L 0.34375 -5.6875 C 0.570312 -6.0625 0.875 -6.351562 1.25 -6.5625 C 1.625 -6.769531 2.0625 -6.875 2.5625 -6.875 C 3.039062 -6.875 3.4375 -6.789062 3.75 -6.625 C 4.070312 -6.46875 4.304688 -6.242188 4.453125 -5.953125 C 4.609375 -5.660156 4.6875 -5.328125 4.6875 -4.953125 C 4.6875 -4.648438 4.625 -4.363281 4.5 -4.09375 C 4.375 -3.832031 4.191406 -3.585938 3.953125 -3.359375 C 3.722656 -3.128906 3.4375 -2.882812 3.09375 -2.625 L 2.328125 -2.078125 C 2.046875 -1.867188 1.828125 -1.691406 1.671875 -1.546875 C 1.523438 -1.398438 1.414062 -1.253906 1.34375 -1.109375 C 1.28125 -0.972656 1.25 -0.820312 1.25 -0.65625 L 4.6875 -0.65625 L 4.6875 0 L 0.40625 0 Z M 0.40625 -0.3125 "/></g></g></g><g fill="#000000" fill-opacity="1"><g transform="translate(36.31082, 34.915215)"><g><path d="M 2.9375 0.09375 C 2.457031 0.09375 2.035156 -0.00390625 1.671875 -0.203125 C 1.316406 -0.410156 1.039062 -0.710938 0.84375 -1.109375 C 0.65625 -1.503906 0.5625 -1.988281 0.5625 -2.5625 C 0.5625 -3.125 0.65625 -3.601562 0.84375 -4 C 1.039062 -4.40625 1.316406 -4.707031 1.671875 -4.90625 C 2.035156 -5.113281 2.457031 -5.21875 2.9375 -5.21875 C 3.414062 -5.21875 3.832031 -5.113281 4.1875 -4.90625 C 4.550781 -4.707031 4.828125 -4.40625 5.015625 -4 C 5.210938 -3.601562 5.3125 -3.125 5.3125 -2.5625 C 5.3125 -1.988281 5.210938 -1.503906 5.015625 -1.109375 C 4.828125 -0.710938 4.550781 -0.410156 4.1875 -0.203125 C 3.832031 -0.00390625 3.414062 0.09375 2.9375 0.09375 Z M 2.9375 -0.578125 C 3.445312 -0.578125 3.835938 -0.738281 4.109375 -1.0625 C 4.378906 -1.382812 4.515625 -1.882812 4.515625 -2.5625 C 4.515625 -3.238281 4.378906 -3.734375 4.109375 -4.046875 C 3.835938 -4.367188 3.445312 -4.53125 2.9375 -4.53125 C 2.425781 -4.53125 2.035156 -4.367188 1.765625 -4.046875 C 1.492188 -3.722656 1.359375 -3.226562 1.359375 -2.5625 C 1.359375 -1.882812 1.492188 -1.382812 1.765625 -1.0625 C 2.035156 -0.738281 2.425781 -0.578125 2.9375 -0.578125 Z M 2.9375 -0.578125 "/></g></g><g transform="translate(42.185943, 34.915215)"><g><path d="M 0.890625 0 L 0.890625 -5.109375 L 1.609375 -5.109375 L 1.609375 -4.3125 L 1.703125 -4.296875 C 1.941406 -4.867188 2.390625 -5.15625 3.046875 -5.15625 C 3.398438 -5.15625 3.664062 -5.09375 3.84375 -4.96875 L 3.640625 -4.328125 L 3.546875 -4.3125 C 3.359375 -4.40625 3.148438 -4.453125 2.921875 -4.453125 C 2.515625 -4.453125 2.195312 -4.300781 1.96875 -4 C 1.75 -3.695312 1.640625 -3.203125 1.640625 -2.515625 L 1.640625 0 Z M 0.890625 0 "/></g></g><g transform="translate(46.139817, 34.915215)"><g><path d="M 1.265625 -6.109375 C 1.109375 -6.109375 0.976562 -6.15625 0.875 -6.25 C 0.78125 -6.351562 0.734375 -6.484375 0.734375 -6.640625 C 0.734375 -6.796875 0.78125 -6.921875 0.875 -7.015625 C 0.976562 -7.117188 1.109375 -7.171875 1.265625 -7.171875 C 1.429688 -7.171875 1.5625 -7.117188 1.65625 -7.015625 C 1.757812 -6.921875 1.8125 -6.796875 1.8125 -6.640625 C 1.8125 -6.484375 1.757812 -6.351562 1.65625 -6.25 C 1.5625 -6.15625 1.429688 -6.109375 1.265625 -6.109375 Z M 0.890625 0 L 0.890625 -5.109375 L 1.640625 -5.109375 L 1.640625 0 Z M 0.890625 0 "/></g></g><g transform="translate(48.678279, 34.915215)"><g><path d="M 2.640625 2.171875 C 1.828125 2.171875 1.234375 2.035156 0.859375 1.765625 C 0.492188 1.492188 0.3125 1.140625 0.3125 0.703125 C 0.3125 0.410156 0.394531 0.175781 0.5625 0 C 0.738281 -0.164062 0.992188 -0.285156 1.328125 -0.359375 L 1.328125 -0.453125 C 1.171875 -0.546875 1.050781 -0.648438 0.96875 -0.765625 C 0.894531 -0.890625 0.859375 -1.035156 0.859375 -1.203125 C 0.859375 -1.398438 0.921875 -1.5625 1.046875 -1.6875 C 1.171875 -1.8125 1.351562 -1.90625 1.59375 -1.96875 L 1.59375 -2.0625 C 1.039062 -2.351562 0.765625 -2.832031 0.765625 -3.5 C 0.765625 -3.832031 0.835938 -4.128906 0.984375 -4.390625 C 1.140625 -4.648438 1.359375 -4.851562 1.640625 -5 C 1.921875 -5.144531 2.25 -5.21875 2.625 -5.21875 C 3.050781 -5.21875 3.410156 -5.125 3.703125 -4.9375 C 3.804688 -5.050781 3.882812 -5.175781 3.9375 -5.3125 C 4 -5.457031 4.035156 -5.613281 4.046875 -5.78125 L 4.140625 -5.84375 L 4.765625 -5.703125 C 4.734375 -5.441406 4.65625 -5.21875 4.53125 -5.03125 C 4.40625 -4.851562 4.226562 -4.707031 4 -4.59375 L 4 -4.5 C 4.164062 -4.363281 4.285156 -4.207031 4.359375 -4.03125 C 4.441406 -3.863281 4.484375 -3.660156 4.484375 -3.421875 C 4.484375 -3.109375 4.40625 -2.820312 4.25 -2.5625 C 4.09375 -2.300781 3.875 -2.097656 3.59375 -1.953125 C 3.3125 -1.804688 2.988281 -1.734375 2.625 -1.734375 C 2.582031 -1.734375 2.503906 -1.738281 2.390625 -1.75 C 2.265625 -1.75 2.175781 -1.75 2.125 -1.75 C 1.957031 -1.75 1.828125 -1.707031 1.734375 -1.625 C 1.640625 -1.539062 1.59375 -1.4375 1.59375 -1.3125 C 1.59375 -1.144531 1.644531 -1.023438 1.75 -0.953125 C 1.851562 -0.878906 2.023438 -0.835938 2.265625 -0.828125 L 3.46875 -0.78125 C 3.988281 -0.757812 4.375 -0.632812 4.625 -0.40625 C 4.882812 -0.1875 5.015625 0.125 5.015625 0.53125 C 5.015625 0.84375 4.929688 1.117188 4.765625 1.359375 C 4.597656 1.609375 4.335938 1.804688 3.984375 1.953125 C 3.628906 2.097656 3.179688 2.171875 2.640625 2.171875 Z M 2.625 -2.390625 C 2.988281 -2.390625 3.269531 -2.484375 3.46875 -2.671875 C 3.664062 -2.859375 3.765625 -3.117188 3.765625 -3.453125 C 3.765625 -3.804688 3.664062 -4.078125 3.46875 -4.265625 C 3.269531 -4.460938 2.988281 -4.5625 2.625 -4.5625 C 2.257812 -4.5625 1.976562 -4.46875 1.78125 -4.28125 C 1.59375 -4.09375 1.5 -3.816406 1.5 -3.453125 C 1.5 -3.117188 1.59375 -2.859375 1.78125 -2.671875 C 1.976562 -2.484375 2.257812 -2.390625 2.625 -2.390625 Z M 2.640625 1.515625 C 3.015625 1.515625 3.320312 1.472656 3.5625 1.390625 C 3.800781 1.304688 3.972656 1.195312 4.078125 1.0625 C 4.179688 0.925781 4.234375 0.773438 4.234375 0.609375 C 4.234375 0.453125 4.203125 0.328125 4.140625 0.234375 C 4.085938 0.140625 4 0.0664062 3.875 0.015625 C 3.75 -0.0234375 3.578125 -0.0507812 3.359375 -0.0625 L 2.203125 -0.109375 L 2.046875 -0.109375 C 1.398438 -0.109375 1.078125 0.132812 1.078125 0.625 C 1.078125 1.21875 1.597656 1.515625 2.640625 1.515625 Z M 2.640625 1.515625 "/></g></g><g transform="translate(53.922267, 34.915215)"><g><path d="M 1.265625 -6.109375 C 1.109375 -6.109375 0.976562 -6.15625 0.875 -6.25 C 0.78125 -6.351562 0.734375 -6.484375 0.734375 -6.640625 C 0.734375 -6.796875 0.78125 -6.921875 0.875 -7.015625 C 0.976562 -7.117188 1.109375 -7.171875 1.265625 -7.171875 C 1.429688 -7.171875 1.5625 -7.117188 1.65625 -7.015625 C 1.757812 -6.921875 1.8125 -6.796875 1.8125 -6.640625 C 1.8125 -6.484375 1.757812 -6.351562 1.65625 -6.25 C 1.5625 -6.15625 1.429688 -6.109375 1.265625 -6.109375 Z M 0.890625 0 L 0.890625 -5.109375 L 1.640625 -5.109375 L 1.640625 0 Z M 0.890625 0 "/></g></g><g transform="translate(56.460728, 34.915215)"><g><path d="M 0.890625 0 L 0.890625 -5.109375 L 1.609375 -5.109375 L 1.609375 -4.3125 L 1.703125 -4.296875 C 1.878906 -4.585938 2.097656 -4.8125 2.359375 -4.96875 C 2.617188 -5.132812 2.941406 -5.21875 3.328125 -5.21875 C 3.941406 -5.21875 4.382812 -5.054688 4.65625 -4.734375 C 4.9375 -4.421875 5.078125 -3.941406 5.078125 -3.296875 L 5.078125 0 L 4.328125 0 L 4.328125 -3.28125 C 4.328125 -3.582031 4.285156 -3.828125 4.203125 -4.015625 C 4.128906 -4.203125 4.007812 -4.335938 3.84375 -4.421875 C 3.675781 -4.515625 3.457031 -4.5625 3.1875 -4.5625 C 2.726562 -4.5625 2.351562 -4.40625 2.0625 -4.09375 C 1.78125 -3.789062 1.640625 -3.300781 1.640625 -2.625 L 1.640625 0 Z M 0.890625 0 "/></g></g><g transform="translate(62.354414, 34.915215)"><g><path d="M 2.109375 0.09375 C 1.609375 0.09375 1.210938 -0.0351562 0.921875 -0.296875 C 0.640625 -0.554688 0.5 -0.929688 0.5 -1.421875 C 0.5 -1.722656 0.5625 -1.976562 0.6875 -2.1875 C 0.8125 -2.394531 1.003906 -2.566406 1.265625 -2.703125 C 1.535156 -2.835938 1.882812 -2.9375 2.3125 -3 C 2.675781 -3.0625 2.953125 -3.128906 3.140625 -3.203125 C 3.335938 -3.285156 3.46875 -3.375 3.53125 -3.46875 C 3.601562 -3.570312 3.640625 -3.695312 3.640625 -3.84375 C 3.640625 -4.070312 3.554688 -4.25 3.390625 -4.375 C 3.234375 -4.5 2.984375 -4.5625 2.640625 -4.5625 C 2.304688 -4.5625 2.019531 -4.492188 1.78125 -4.359375 C 1.539062 -4.234375 1.320312 -4.046875 1.125 -3.796875 L 1.046875 -3.796875 L 0.671875 -4.3125 C 0.890625 -4.59375 1.164062 -4.8125 1.5 -4.96875 C 1.832031 -5.132812 2.210938 -5.21875 2.640625 -5.21875 C 3.242188 -5.21875 3.6875 -5.082031 3.96875 -4.8125 C 4.25 -4.550781 4.390625 -4.1875 4.390625 -3.71875 L 4.390625 -1 C 4.390625 -0.71875 4.515625 -0.578125 4.765625 -0.578125 C 4.835938 -0.578125 4.910156 -0.59375 4.984375 -0.625 L 5.0625 -0.609375 L 5.140625 -0.078125 C 5.085938 -0.0351562 5.015625 -0.0078125 4.921875 0 C 4.828125 0.0195312 4.734375 0.03125 4.640625 0.03125 C 4.359375 0.03125 4.144531 -0.0234375 4 -0.140625 C 3.863281 -0.265625 3.773438 -0.453125 3.734375 -0.703125 L 3.625 -0.703125 C 3.488281 -0.429688 3.296875 -0.226562 3.046875 -0.09375 C 2.796875 0.03125 2.484375 0.09375 2.109375 0.09375 Z M 2.28125 -0.5 C 2.5625 -0.5 2.804688 -0.566406 3.015625 -0.703125 C 3.222656 -0.835938 3.382812 -1.019531 3.5 -1.25 C 3.613281 -1.488281 3.671875 -1.765625 3.671875 -2.078125 L 3.671875 -2.734375 L 3.578125 -2.75 C 3.460938 -2.664062 3.320312 -2.597656 3.15625 -2.546875 C 2.988281 -2.492188 2.757812 -2.445312 2.46875 -2.40625 C 2.175781 -2.363281 1.941406 -2.300781 1.765625 -2.21875 C 1.585938 -2.132812 1.460938 -2.023438 1.390625 -1.890625 C 1.316406 -1.765625 1.28125 -1.609375 1.28125 -1.421875 C 1.28125 -1.117188 1.367188 -0.890625 1.546875 -0.734375 C 1.722656 -0.578125 1.96875 -0.5 2.28125 -0.5 Z M 2.28125 -0.5 "/></g></g><g transform="translate(67.64945, 34.915215)"><g><path d="M 2.03125 0.09375 C 1.675781 0.09375 1.394531 -0.00390625 1.1875 -0.203125 C 0.976562 -0.410156 0.875 -0.71875 0.875 -1.125 L 0.875 -7.171875 L 1.625 -7.171875 L 1.625 -1.1875 C 1.625 -0.96875 1.664062 -0.8125 1.75 -0.71875 C 1.832031 -0.625 1.960938 -0.578125 2.140625 -0.578125 C 2.242188 -0.578125 2.347656 -0.59375 2.453125 -0.625 L 2.515625 -0.609375 L 2.609375 -0.015625 C 2.554688 0.015625 2.476562 0.0390625 2.375 0.0625 C 2.269531 0.0820312 2.15625 0.09375 2.03125 0.09375 Z M 2.03125 0.09375 "/></g></g></g></svg>